<?xml version="1.0" encoding="utf-8"?>
<!-- Generator: Adobe Illustrator 16.0.0, SVG Export Plug-In . SVG Version: 6.00 Build 0)  -->
<!DOCTYPE svg PUBLIC "-//W3C//DTD SVG 1.1//EN" "http://www.w3.org/Graphics/SVG/1.1/DTD/svg11.dtd">
<svg version="1.1" id="Layer_3" xmlns="http://www.w3.org/2000/svg" xmlns:xlink="http://www.w3.org/1999/xlink" x="0px" y="0px"
	 width="114.25px" height="31px" viewBox="0 0 114.25 31" enable-background="new 0 0 114.25 31" xml:space="preserve">
<g>
	<path fill="#EA8238" d="M11.175,11.797H4.802v0.299h1h0.307h3.365C10.173,12.096,10.729,11.988,11.175,11.797z"/>
	<path fill="#EA8238" d="M11.898,11.316c0.059-0.066,0.105-0.137,0.155-0.207H4.802v0.271h7.019
		C11.844,11.356,11.876,11.34,11.898,11.316z"/>
	<path fill="#EA8238" d="M12.498,9.768c0-0.528-0.154-0.97-0.462-1.326s-0.722-0.59-1.242-0.702c0.144-0.064,0.244-0.11,0.3-0.138
		c0.056-0.028,0.156-0.098,0.3-0.21c0.424-0.32,0.636-0.808,0.636-1.464c0-0.544-0.188-1.032-0.564-1.464
		c-0.208-0.232-0.518-0.416-0.93-0.552c-0.412-0.136-0.902-0.204-1.47-0.204H6.109H5.802h-1v1.584h1v5.22h-1v0.181h7.496
		C12.426,10.405,12.498,10.099,12.498,9.768z M7.674,5.292h0.9c0.552,0,0.944,0.06,1.176,0.18c0.232,0.12,0.348,0.366,0.348,0.738
		S9.972,6.824,9.72,6.936C9.468,7.048,9.082,7.104,8.562,7.104H7.674V5.292z M10.164,10.313c-0.268,0.132-0.67,0.198-1.206,0.198
		H7.674V8.58h1.104c0.624,0,1.078,0.062,1.362,0.186c0.284,0.124,0.426,0.38,0.426,0.768C10.566,9.922,10.432,10.182,10.164,10.313z
		"/>
	<rect x="15.174" y="11.109" fill="#EA8238" width="1.872" height="0.271"/>
	<rect x="15.174" y="11.797" fill="#EA8238" width="1.872" height="0.299"/>
	<polygon fill="#EA8238" points="15.174,10.692 17.046,10.692 17.046,5.328 19.423,5.328 19.423,3.708 12.798,3.708 12.798,5.328 
		15.174,5.328 	"/>
	<path fill="#EA8238" d="M26.161,11.797H22.43c0.578,0.254,1.221,0.395,1.942,0.395C25.01,12.192,25.606,12.059,26.161,11.797z"/>
	<path fill="#EA8238" d="M22.608,5.994c0.5-0.46,1.102-0.69,1.805-0.69c0.881,0,1.617,0.368,2.209,1.104l1.164-1.32
		c-0.928-1.048-2.08-1.572-3.457-1.572c-1.23,0-2.273,0.416-3.125,1.248c-0.648,0.634-1.047,1.389-1.202,2.262h1.981
		C22.102,6.624,22.303,6.275,22.608,5.994z"/>
	<path fill="#EA8238" d="M27.622,10.692c0.037-0.04,0.078-0.067,0.115-0.109l-1.199-1.236c-0.584,0.728-1.336,1.092-2.256,1.092
		c-0.672,0-1.244-0.236-1.717-0.708c-0.346-0.347-0.562-0.778-0.654-1.29h-1.936c0.098,0.866,0.422,1.616,0.973,2.25L27.622,10.692
		L27.622,10.692z"/>
	<path fill="#EA8238" d="M21.357,11.109c0.109,0.096,0.222,0.188,0.339,0.271h5.146c0.114-0.083,0.227-0.175,0.337-0.271H21.357z"/>
	<polygon fill="#EA8238" points="18.74,27.59 21.06,27.59 21.142,27.354 18.666,27.354 	"/>
	<polygon fill="#EA8238" points="10.238,27.354 10.32,27.59 12.64,27.59 12.714,27.354 11.542,27.354 	"/>
	<polygon fill="#EA8238" points="9.854,26.254 10.027,26.75 11.542,26.75 12.903,26.75 13.058,26.254 12.438,26.254 	"/>
	<polygon fill="#EA8238" points="18.476,26.75 21.353,26.75 21.526,26.254 18.32,26.254 	"/>
	<polygon fill="#EA8238" points="19.78,21.648 17.32,13.61 14.06,13.61 11.58,21.648 8.82,13.61 5.44,13.61 9.738,25.924 
		12.438,25.924 13.161,25.924 15.68,17.87 18.216,25.924 21.642,25.924 25.94,13.61 22.56,13.61 	"/>
	<rect x="32.94" y="27.354" fill="#EA8238" width="2.819" height="0.235"/>
	<path fill="#EA8238" d="M30.07,27.75c0.589,0,1.127-0.136,1.618-0.396H28.17C28.737,27.607,29.364,27.75,30.07,27.75z"/>
	<path fill="#EA8238" d="M27.191,26.75h5.307c0.151-0.145,0.303-0.285,0.442-0.46v0.46h2.819v-0.496h-9.038
		C26.858,26.432,27.013,26.598,27.191,26.75z"/>
	<path fill="#EA8238" d="M31.32,16.648c-1.813,0-3.427,0.515-4.84,1.541l1.34,1.939c0.399-0.307,0.89-0.562,1.47-0.771
		c0.58-0.205,1.13-0.31,1.65-0.31c1.213,0,1.819,0.573,1.819,1.72v0.062H30.52c-1.387,0-2.48,0.272-3.28,0.819
		c-0.8,0.547-1.2,1.369-1.2,2.471c0,0.691,0.171,1.285,0.477,1.804h9.243v-5.194c0-1.412-0.413-2.445-1.239-3.1
		C33.693,16.977,32.627,16.648,31.32,16.648z M32.74,23.49c0,0.547-0.203,0.982-0.61,1.31c-0.406,0.327-0.877,0.49-1.41,0.49
		c-0.533,0-0.943-0.104-1.229-0.312c-0.287-0.205-0.43-0.502-0.43-0.89c0-0.746,0.6-1.12,1.8-1.12h1.88L32.74,23.49L32.74,23.49z"/>
	<polygon fill="#EA8238" points="38.5,26.254 38.5,26.75 41.5,26.75 41.5,26.254 39.963,26.254 	"/>
	<rect x="38.5" y="12.75" fill="#EA8238" width="3" height="13.174"/>
	<polygon fill="#EA8238" points="38.5,27.354 38.5,27.59 41.5,27.59 41.5,27.354 39.067,27.354 	"/>
	<rect x="44.34" y="26.254" fill="#EA8238" width="3" height="0.496"/>
	<rect x="44.34" y="27.354" fill="#EA8238" width="3" height="0.235"/>
	<rect x="44.34" y="12.75" fill="#EA8238" width="3" height="13.174"/>
	<path fill="#EA8238" d="M55.06,16.648c-1.479,0-2.764,0.5-3.85,1.5c-1.087,1-1.63,2.349-1.63,4.041
		c0,1.529,0.459,2.765,1.329,3.733h6.329H59.4l-1.582-1.714c-0.679,0.707-1.546,1.061-2.6,1.061c-0.653,0-1.24-0.188-1.76-0.561
		c-0.521-0.373-0.827-0.854-0.92-1.439h7.84v-1.601c0-1.562-0.518-2.787-1.55-3.681C57.796,17.098,56.54,16.648,55.06,16.648z
		 M52.62,21.13c0.08-0.612,0.366-1.101,0.859-1.46s1.037-0.54,1.63-0.54c0.594,0,1.097,0.175,1.511,0.521
		c0.413,0.348,0.652,0.841,0.72,1.479H52.62z"/>
	<path fill="#EA8238" d="M51.197,26.254c0.201,0.188,0.42,0.344,0.641,0.496h4.505h2.249c0.217-0.145,0.422-0.32,0.626-0.496h-1.979
		H51.197z"/>
	<path fill="#EA8238" d="M52.955,27.354c0.686,0.263,1.442,0.396,2.274,0.396c0.773,0,1.495-0.139,2.175-0.396h-1.062H52.955z"/>
	<path fill="#EA8238" d="M66.67,27.75c0.564,0,1.114-0.141,1.648-0.396h-3.354C65.477,27.607,66.039,27.75,66.67,27.75z"/>
	<path fill="#EA8238" d="M69.329,25.924L68.5,24.37c-0.387,0.507-0.859,0.76-1.42,0.76c-0.294,0-0.547-0.116-0.76-0.351
		C66.105,24.547,66,24.225,66,23.811v-4.82h1.438l1.162-2.16H66v-3.22h-3.02v3.22l-0.543,0.951l-0.717,1.209h1.26v4.96
		c0,0.767,0.168,1.417,0.474,1.974h1.864H69.329z"/>
	<path fill="#EA8238" d="M65.318,26.254h-1.67c0.121,0.168,0.248,0.33,0.4,0.477c0.008,0.008,0.018,0.013,0.026,0.021h0.347h4.842
		c0.119-0.094,0.238-0.174,0.355-0.28l-0.115-0.216L65.318,26.254L65.318,26.254z"/>
	<path fill="#EA8238" d="M74.169,26.75h7.937c0.258-0.148,0.502-0.314,0.735-0.496h-9.403C73.673,26.438,73.918,26.602,74.169,26.75
		z"/>
	<path fill="#EA8238" d="M77.979,27.75c1.004,0,1.914-0.137,2.738-0.396h-5.23C76.256,27.613,77.085,27.75,77.979,27.75z"/>
	<path fill="#EA8238" d="M80.6,24.311c-0.72,0.414-1.619,0.619-2.699,0.619s-2.01-0.396-2.791-1.188
		c-0.778-0.794-1.17-1.851-1.17-3.171c0-1.319,0.408-2.383,1.222-3.189c0.812-0.807,1.812-1.21,3-1.21
		c0.612,0,1.183,0.104,1.71,0.31c0.525,0.207,1.104,0.584,1.729,1.131l1.621-2.34c-1.479-1.32-3.225-1.979-5.229-1.979
		c-2.007,0-3.722,0.693-5.142,2.079c-1.42,1.388-2.129,3.117-2.129,5.189c0,2.073,0.695,3.791,2.09,5.15
		c0.078,0.076,0.16,0.143,0.239,0.214h10.195c0.171-0.155,0.338-0.317,0.495-0.493v-4.961H80.6V24.311z"/>
	<path fill="#EA8238" d="M87.236,26.254c0.201,0.188,0.421,0.344,0.642,0.496h6.754c0.218-0.145,0.421-0.32,0.626-0.496h-6.68
		H87.236z"/>
	<path fill="#EA8238" d="M91.27,27.75c0.773,0,1.496-0.139,2.176-0.396h-4.449C89.682,27.616,90.438,27.75,91.27,27.75z"/>
	<path fill="#EA8238" d="M91.1,16.648c-1.479,0-2.764,0.5-3.85,1.5c-1.087,1-1.63,2.349-1.63,4.041c0,1.529,0.459,2.765,1.329,3.733
		h8.492l-1.582-1.714c-0.68,0.707-1.547,1.061-2.601,1.061c-0.653,0-1.239-0.188-1.76-0.561s-0.827-0.854-0.92-1.439h7.84v-1.601
		c0-1.562-0.517-2.787-1.55-3.681C93.836,17.098,92.58,16.648,91.1,16.648z M88.66,21.13c0.08-0.612,0.365-1.101,0.859-1.46
		c0.492-0.359,1.037-0.54,1.629-0.54c0.595,0,1.098,0.175,1.512,0.521c0.413,0.348,0.652,0.841,0.72,1.479H88.66z"/>
	<rect x="98.58" y="26.254" fill="#EA8238" width="3" height="0.496"/>
	<polygon fill="#EA8238" points="105.641,26.75 106.738,26.75 108.641,26.75 108.641,26.254 105.641,26.254 	"/>
	<path fill="#EA8238" d="M107.49,17.85c-0.768-0.8-1.717-1.199-2.85-1.199c-1.135,0-2.154,0.459-3.062,1.381v-1.2h-3v9.094h3V21.59
		c0-0.84,0.224-1.477,0.67-1.91c0.446-0.433,0.97-0.648,1.569-0.648c1.214,0,1.82,0.826,1.82,2.479v4.414h1.994h1.006V21.05
		C108.641,19.717,108.257,18.648,107.49,17.85z"/>
	<rect x="98.58" y="27.354" fill="#EA8238" width="3" height="0.235"/>
	<rect x="105.641" y="27.354" fill="#EA8238" width="3" height="0.235"/>
</g>
</svg>
