<?xml version="1.0" encoding="utf-8"?>
<!-- Generator: Adobe Illustrator 16.0.0, SVG Export Plug-In . SVG Version: 6.00 Build 0)  -->
<!DOCTYPE svg PUBLIC "-//W3C//DTD SVG 1.1//EN" "http://www.w3.org/Graphics/SVG/1.1/DTD/svg11.dtd">
<svg version="1.1" id="Layer_3" xmlns="http://www.w3.org/2000/svg" xmlns:xlink="http://www.w3.org/1999/xlink" x="0px" y="0px"
	 width="114.25px" height="31px" viewBox="0 0 114.25 31" enable-background="new 0 0 114.25 31" xml:space="preserve">
<g>
	<path fill="#FFFFFF" d="M11.175,11.797H4.802v0.299h1h0.307h3.365C10.173,12.096,10.729,11.988,11.175,11.797z"/>
	<path fill="#FFFFFF" d="M11.898,11.316c0.059-0.066,0.105-0.137,0.155-0.207H4.802v0.271h7.019
		C11.844,11.356,11.876,11.34,11.898,11.316z"/>
	<path fill="#FFFFFF" d="M12.498,9.768c0-0.528-0.154-0.97-0.462-1.326c-0.308-0.356-0.722-0.59-1.242-0.702
		c0.144-0.064,0.244-0.11,0.3-0.138c0.056-0.028,0.156-0.098,0.3-0.21c0.424-0.32,0.636-0.808,0.636-1.464
		c0-0.544-0.188-1.032-0.564-1.464c-0.208-0.232-0.518-0.416-0.93-0.552c-0.412-0.136-0.902-0.204-1.47-0.204H6.109H5.802h-1v1.584
		h1v5.22h-1v0.181h7.496C12.426,10.405,12.498,10.099,12.498,9.768z M7.674,5.292h0.9c0.552,0,0.944,0.06,1.176,0.18
		s0.348,0.366,0.348,0.738c0,0.372-0.126,0.614-0.378,0.726C9.468,7.048,9.082,7.104,8.562,7.104H7.674V5.292z M10.164,10.313
		c-0.268,0.132-0.67,0.198-1.206,0.198H7.674V8.58h1.104c0.624,0,1.078,0.062,1.362,0.186c0.284,0.124,0.426,0.38,0.426,0.768
		C10.566,9.922,10.432,10.182,10.164,10.313z"/>
	<rect x="15.174" y="11.109" fill="#FFFFFF" width="1.872" height="0.271"/>
	<rect x="15.174" y="11.797" fill="#FFFFFF" width="1.872" height="0.299"/>
	<polygon fill="#FFFFFF" points="15.174,10.692 17.046,10.692 17.046,5.328 19.423,5.328 19.423,3.708 12.798,3.708 12.798,5.328 
		15.174,5.328 	"/>
	<path fill="#FFFFFF" d="M26.161,11.797H22.43c0.578,0.254,1.221,0.395,1.942,0.395C25.01,12.192,25.606,12.059,26.161,11.797z"/>
	<path fill="#FFFFFF" d="M22.608,5.994c0.5-0.46,1.102-0.69,1.805-0.69c0.881,0,1.617,0.368,2.209,1.104l1.164-1.32
		c-0.928-1.048-2.08-1.572-3.457-1.572c-1.23,0-2.273,0.416-3.125,1.248c-0.648,0.634-1.047,1.389-1.202,2.262h1.981
		C22.102,6.624,22.303,6.275,22.608,5.994z"/>
	<path fill="#FFFFFF" d="M27.622,10.692c0.037-0.04,0.078-0.067,0.115-0.109l-1.199-1.236c-0.584,0.728-1.336,1.092-2.256,1.092
		c-0.672,0-1.244-0.236-1.717-0.708c-0.346-0.347-0.562-0.778-0.654-1.29h-1.936c0.098,0.866,0.422,1.616,0.973,2.25H27.622z"/>
	<path fill="#FFFFFF" d="M21.357,11.109c0.109,0.096,0.222,0.188,0.339,0.271h5.146c0.114-0.083,0.227-0.175,0.337-0.271H21.357z"/>
	<polygon fill="#FFFFFF" points="18.74,27.59 21.06,27.59 21.142,27.354 18.666,27.354 	"/>
	<polygon fill="#FFFFFF" points="10.238,27.354 10.32,27.59 12.64,27.59 12.714,27.354 11.542,27.354 	"/>
	<polygon fill="#FFFFFF" points="9.854,26.254 10.027,26.75 11.542,26.75 12.903,26.75 13.058,26.254 12.438,26.254 	"/>
	<polygon fill="#FFFFFF" points="18.476,26.75 21.353,26.75 21.526,26.254 18.32,26.254 	"/>
	<polygon fill="#FFFFFF" points="19.78,21.649 17.32,13.61 14.06,13.61 11.58,21.649 8.82,13.61 5.44,13.61 9.738,25.924 
		12.438,25.924 13.161,25.924 15.68,17.87 18.216,25.924 21.642,25.924 25.94,13.61 22.56,13.61 	"/>
	<rect x="32.94" y="27.354" fill="#FFFFFF" width="2.819" height="0.235"/>
	<path fill="#FFFFFF" d="M30.07,27.75c0.589,0,1.127-0.136,1.618-0.396h-3.518C28.737,27.607,29.364,27.75,30.07,27.75z"/>
	<path fill="#FFFFFF" d="M27.191,26.75h5.307c0.151-0.144,0.303-0.285,0.442-0.46v0.46h2.819v-0.496h-9.038
		C26.858,26.431,27.013,26.597,27.191,26.75z"/>
	<path fill="#FFFFFF" d="M31.32,16.649c-1.813,0-3.427,0.514-4.84,1.54l1.34,1.94c0.399-0.307,0.89-0.563,1.47-0.771
		c0.58-0.206,1.13-0.31,1.65-0.31c1.213,0,1.819,0.573,1.819,1.72v0.061h-2.239c-1.387,0-2.48,0.273-3.28,0.819
		c-0.8,0.547-1.2,1.37-1.2,2.471c0,0.691,0.171,1.286,0.477,1.804h9.243v-5.194c0-1.413-0.413-2.446-1.239-3.1
		C33.693,16.977,32.627,16.649,31.32,16.649z M32.74,23.49c0,0.547-0.203,0.983-0.61,1.31c-0.406,0.327-0.877,0.49-1.41,0.49
		s-0.943-0.104-1.229-0.311c-0.287-0.206-0.43-0.503-0.43-0.89c0-0.746,0.6-1.12,1.8-1.12h1.88V23.49z"/>
	<polygon fill="#FFFFFF" points="38.5,26.254 38.5,26.75 41.5,26.75 41.5,26.254 39.963,26.254 	"/>
	<rect x="38.5" y="12.75" fill="#FFFFFF" width="3" height="13.174"/>
	<polygon fill="#FFFFFF" points="38.5,27.354 38.5,27.59 41.5,27.59 41.5,27.354 39.067,27.354 	"/>
	<rect x="44.34" y="26.254" fill="#FFFFFF" width="3" height="0.496"/>
	<rect x="44.34" y="27.354" fill="#FFFFFF" width="3" height="0.235"/>
	<rect x="44.34" y="12.75" fill="#FFFFFF" width="3" height="13.174"/>
	<path fill="#FFFFFF" d="M55.06,16.649c-1.479,0-2.764,0.5-3.85,1.5c-1.087,1-1.63,2.348-1.63,4.04c0,1.53,0.459,2.765,1.329,3.734
		h6.329h2.163l-1.582-1.714c-0.68,0.707-1.547,1.06-2.6,1.06c-0.653,0-1.24-0.187-1.76-0.56c-0.521-0.373-0.827-0.854-0.92-1.44
		h7.84v-1.6c0-1.561-0.517-2.787-1.55-3.68C57.796,17.097,56.54,16.649,55.06,16.649z M52.62,21.13c0.08-0.613,0.366-1.1,0.859-1.46
		s1.037-0.54,1.63-0.54c0.594,0,1.097,0.174,1.511,0.52c0.413,0.348,0.652,0.841,0.72,1.48H52.62z"/>
	<path fill="#FFFFFF" d="M51.197,26.254c0.201,0.188,0.42,0.344,0.641,0.496h4.505h2.249c0.217-0.144,0.421-0.321,0.626-0.496
		h-1.979H51.197z"/>
	<path fill="#FFFFFF" d="M52.955,27.354c0.686,0.262,1.442,0.396,2.274,0.396c0.773,0,1.495-0.139,2.175-0.396h-1.062H52.955z"/>
	<path fill="#FFFFFF" d="M66.67,27.75c0.565,0,1.114-0.14,1.649-0.396h-3.354C65.476,27.607,66.039,27.75,66.67,27.75z"/>
	<path fill="#FFFFFF" d="M69.329,25.924L68.5,24.37c-0.387,0.507-0.86,0.76-1.42,0.76c-0.294,0-0.547-0.116-0.76-0.35
		C66.106,24.547,66,24.224,66,23.81V18.99h1.438l1.162-2.16H66v-3.22h-3.02v3.22l-0.543,0.951L61.72,18.99h1.261v4.96
		c0,0.767,0.168,1.417,0.473,1.974h1.865H69.329z"/>
	<path fill="#FFFFFF" d="M65.318,26.254h-1.669c0.12,0.168,0.248,0.33,0.4,0.476c0.008,0.008,0.018,0.013,0.026,0.021h0.347h4.842
		c0.119-0.094,0.238-0.174,0.355-0.28l-0.115-0.216H65.318z"/>
	<path fill="#FFFFFF" d="M74.169,26.75h7.937c0.258-0.148,0.501-0.314,0.735-0.496h-9.403C73.673,26.438,73.918,26.601,74.169,26.75
		z"/>
	<path fill="#FFFFFF" d="M77.979,27.75c1.004,0,1.913-0.137,2.738-0.396h-5.231C76.256,27.613,77.085,27.75,77.979,27.75z"/>
	<path fill="#FFFFFF" d="M80.6,24.31c-0.72,0.414-1.62,0.62-2.7,0.62s-2.01-0.396-2.79-1.189c-0.779-0.794-1.17-1.851-1.17-3.17
		c0-1.32,0.407-2.384,1.221-3.19c0.812-0.807,1.812-1.21,3-1.21c0.612,0,1.183,0.104,1.71,0.31c0.526,0.207,1.103,0.584,1.729,1.13
		l1.62-2.34c-1.479-1.32-3.224-1.979-5.229-1.979c-2.007,0-3.721,0.693-5.141,2.079c-1.42,1.388-2.13,3.117-2.13,5.19
		s0.696,3.79,2.09,5.15c0.078,0.076,0.161,0.142,0.24,0.214h10.195c0.171-0.156,0.338-0.318,0.495-0.494v-4.96H80.6V24.31z"/>
	<path fill="#FFFFFF" d="M87.237,26.254c0.201,0.188,0.42,0.344,0.641,0.496h6.754c0.217-0.144,0.421-0.321,0.626-0.496h-6.68
		H87.237z"/>
	<path fill="#FFFFFF" d="M91.27,27.75c0.773,0,1.495-0.139,2.175-0.396h-4.449C89.681,27.616,90.438,27.75,91.27,27.75z"/>
	<path fill="#FFFFFF" d="M91.1,16.649c-1.479,0-2.764,0.5-3.85,1.5c-1.087,1-1.63,2.348-1.63,4.04c0,1.53,0.459,2.765,1.329,3.734
		h8.492l-1.582-1.714c-0.68,0.707-1.547,1.06-2.6,1.06c-0.653,0-1.24-0.187-1.76-0.56c-0.521-0.373-0.827-0.854-0.92-1.44h7.84v-1.6
		c0-1.561-0.517-2.787-1.55-3.68C93.836,17.097,92.58,16.649,91.1,16.649z M88.66,21.13c0.08-0.613,0.366-1.1,0.859-1.46
		s1.037-0.54,1.63-0.54c0.594,0,1.097,0.174,1.511,0.52c0.413,0.348,0.652,0.841,0.72,1.48H88.66z"/>
	<rect x="98.58" y="26.254" fill="#FFFFFF" width="3" height="0.496"/>
	<polygon fill="#FFFFFF" points="105.641,26.75 106.738,26.75 108.641,26.75 108.641,26.254 105.641,26.254 	"/>
	<path fill="#FFFFFF" d="M107.49,17.85c-0.767-0.8-1.717-1.2-2.85-1.2c-1.134,0-2.154,0.46-3.061,1.381v-1.2h-3v9.094h3V21.59
		c0-0.84,0.224-1.477,0.67-1.91c0.446-0.433,0.97-0.649,1.57-0.649c1.213,0,1.82,0.826,1.82,2.479v4.414h1.994h1.006V21.05
		C108.641,19.717,108.257,18.649,107.49,17.85z"/>
	<rect x="98.58" y="27.354" fill="#FFFFFF" width="3" height="0.235"/>
	<rect x="105.641" y="27.354" fill="#FFFFFF" width="3" height="0.235"/>
</g>
</svg>
